HIERARCHY
ROOT SpineBase
{
  OFFSET 0.000000 0.000000 0.000000
  CHANNELS 6 Xposition Yposition Zposition Zrotation Xrotation Yrotation
  JOINT SpineMid
  {
    OFFSET 0.000000 29.577876 0.000000
    CHANNELS 3 Zrotation Xrotation Yrotation
    JOINT SpineShoulder
    {
      OFFSET 0.046741 21.998713 -0.652595
      CHANNELS 3 Zrotation Xrotation Yrotation
      JOINT Neck
      {
        OFFSET 0.001184 7.291227 -0.518305
        CHANNELS 3 Zrotation Xrotation Yrotation
        JOINT Head
        {
          OFFSET 3.321977 12.954644 -0.397291
          CHANNELS 3 Zrotation Xrotation Yrotation
          End Site
          {
            OFFSET 0 0 0
          }
        }
      }
      JOINT ShoulderLeft
      {
        OFFSET -13.875769 -2.975573 -7.673202
        CHANNELS 3 Zrotation Xrotation Yrotation
        JOINT ElbowLeft
        {
          OFFSET -4.851290 -25.810156 -0.902970
          CHANNELS 3 Zrotation Xrotation Yrotation
          JOINT WristLeft
          {
            OFFSET 1.548357 -21.063921 -3.600368
            CHANNELS 3 Zrotation Xrotation Yrotation
            JOINT HandLeft
            {
              OFFSET 1.250182 -3.487163 0.180948
              CHANNELS 3 Zrotation Xrotation Yrotation
              JOINT HandTipLeft
              {
                OFFSET 0.218473 -7.066664 -0.603238
                CHANNELS 3 Zrotation Xrotation Yrotation
                End Site
                {
                  OFFSET 0 0 0
                }
              }
              JOINT ThumbLeft
              {
                OFFSET 3.287195 0.365134 -2.451934
                CHANNELS 3 Zrotation Xrotation Yrotation
                End Site
                {
                  OFFSET 0 0 0
                }
              }
            }
          }
        }
      }
      JOINT ShoulderRight
      {
        OFFSET 15.191224 -4.213695 3.764245
        CHANNELS 3 Zrotation Xrotation Yrotation
        JOINT ElbowRight
        {
          OFFSET 4.887491 -24.577878 2.938683
          CHANNELS 3 Zrotation Xrotation Yrotation
          JOINT WristRight
          {
            OFFSET 4.806471 -19.277531 -8.768498
            CHANNELS 3 Zrotation Xrotation Yrotation
            JOINT HandRight
            {
              OFFSET -0.609268 -4.845562 -2.277303
              CHANNELS 3 Zrotation Xrotation Yrotation
              JOINT HandTipRight
              {
                OFFSET 0.031622 -6.385502 -0.918981
                CHANNELS 3 Zrotation Xrotation Yrotation
                End Site
                {
                  OFFSET 0 0 0
                }
              }
              JOINT ThumbRight
              {
                OFFSET -2.078403 0.530880 -1.336916
                CHANNELS 3 Zrotation Xrotation Yrotation
                End Site
                {
                  OFFSET 0 0 0
                }
              }
            }
          }
        }
      }
    }
  }
  JOINT HipLeft
  {
    OFFSET -7.312218 1.709327 -5.701662
    CHANNELS 3 Zrotation Xrotation Yrotation
    JOINT KneeLeft
    {
      OFFSET -6.100316 -28.311417 -2.918040
      CHANNELS 3 Zrotation Xrotation Yrotation
      JOINT AnkleLeft
      {
        OFFSET -5.502539 -33.886876 4.524796
        CHANNELS 3 Zrotation Xrotation Yrotation
        JOINT FootLeft
        {
          OFFSET -1.734108 -8.280581 -4.800893
          CHANNELS 3 Zrotation Xrotation Yrotation
          End Site
          {
            OFFSET 0 0 0
          }
        }
      }
    }
  }
  JOINT HipRight
  {
    OFFSET 6.583212 -0.139645 -0.805634
    CHANNELS 3 Zrotation Xrotation Yrotation
    JOINT KneeRight
    {
      OFFSET -1.754663 -29.532927 10.670028
      CHANNELS 3 Zrotation Xrotation Yrotation
      JOINT AnkleRight
      {
        OFFSET -3.378114 -32.491901 5.772394
        CHANNELS 3 Zrotation Xrotation Yrotation
        JOINT FootRight
        {
          OFFSET 5.437865 -5.934888 -2.231969
          CHANNELS 3 Zrotation Xrotation Yrotation
          End Site
          {
            OFFSET 0 0 0
          }
        }
      }
    }
  }
}
MOTION
Frames: 5
Frame Time: 0.033333
38.497057 68.769547 355.062142 -0.000000 0.000000 -19.409812 0.000000 0.000000 19.409812 -0.000000 0.000000 0.000000 -0.000000 0.000000 0.000000 0.000000 0.000000 0.000000 -0.000000 0.000000 0.000000 -0.000000 0.000000 0.000000 -0.000000 0.000000 0.000000 -0.000000 0.000000 0.000000 0.000000 0.000000 0.000000 0.000000 0.000000 0.000000 -0.000000 0.000000 0.000000 -0.000000 0.000000 0.000000 -0.000000 0.000000 0.000000 -0.000000 0.000000 0.000000 0.000000 0.000000 0.000000 0.000000 0.000000 0.000000 0.000000 0.000000 19.409812 -0.000000 0.000000 0.000000 -0.000000 0.000000 0.000000 0.000000 0.000000 0.000000 0.000000 0.000000 19.409812 -0.000000 0.000000 0.000000 -0.000000 0.000000 0.000000 0.000000 0.000000 0.000000
38.435443 68.754757 354.989649 -0.013776 0.250950 -20.268524 0.099858 -0.230639 20.268755 -0.000000 0.000000 0.000000 -0.000000 0.000000 0.000000 0.000000 0.000000 0.000000 -0.819846 0.382248 -0.040371 0.820133 -0.381631 0.045837 -3.307193 3.624620 1.247826 4.405037 -4.680375 -1.084681 0.000000 0.000000 0.000000 0.000000 0.000000 0.000000 -0.000000 0.000000 0.000000 0.426632 -2.630310 -0.848249 1.045393 -1.971415 0.760703 -3.291915 3.983059 0.557138 0.000000 0.000000 0.000000 0.000000 0.000000 0.000000 0.099858 -0.230639 20.268755 -0.000000 0.000000 0.000000 5.921590 9.706061 -5.751155 0.000000 0.000000 0.000000 0.099858 -0.230639 20.268755 -0.000000 0.000000 0.000000 -0.413185 0.844482 0.932684 0.000000 0.000000 0.000000
38.379548 68.747219 354.941052 0.027405 0.463962 -21.011958 0.140779 -0.442938 21.012391 0.459032 0.706122 0.029701 -0.459433 -0.705861 -0.035359 0.000000 0.000000 0.000000 -1.915915 0.094543 -0.142151 1.074194 0.466741 0.266012 -5.096376 5.072493 2.056325 7.555144 -8.123089 -1.682245 0.000000 0.000000 0.000000 0.000000 0.000000 0.000000 -0.459433 -0.705861 -0.035359 0.493407 -5.001283 -1.478344 1.780592 -3.469092 1.541549 -5.693444 7.351884 1.095566 0.000000 0.000000 0.000000 0.000000 0.000000 0.000000 0.214272 -1.630807 21.295270 0.362973 1.133447 -0.285139 11.954292 17.503221 -11.668520 0.000000 0.000000 0.000000 0.140779 -0.442938 21.012391 -0.000000 0.000000 0.000000 -0.816917 1.468210 1.665759 0.000000 0.000000 0.000000
38.329372 68.746935 354.916350 0.123430 0.639488 -21.640209 0.326636 0.337424 21.655333 0.192059 0.116427 0.038778 -1.820508 -0.912087 -0.118256 0.000000 0.000000 0.000000 -2.648938 0.305039 -0.237523 1.471861 0.539499 0.390699 -6.269376 6.528656 2.781850 9.701914 -10.456228 -2.011751 0.000000 0.000000 0.000000 0.000000 0.000000 0.000000 -1.892424 -1.060732 -0.239154 1.379196 -6.979566 -1.748164 2.107012 -4.367512 2.338711 -7.019101 10.016545 1.369677 0.000000 0.000000 0.000000 0.000000 0.000000 0.000000 0.125778 -2.327916 22.042607 0.472941 2.404224 -0.563132 17.490658 22.449263 -16.705376 0.000000 0.000000 0.000000 0.121100 -0.639933 21.640197 -0.000000 0.000000 0.000000 -1.206669 1.881772 2.205356 0.000000 0.000000 0.000000
38.284916 68.753902 354.915544 0.274356 0.777861 -22.153175 0.422220 0.412119 22.175202 0.244607 0.119311 0.054403 -2.325431 -1.138410 -0.143580 0.000000 0.000000 0.000000 -3.225609 0.622889 -0.345355 1.770428 0.505962 0.508479 -6.714415 7.478367 3.306846 11.011201 -11.798853 -2.210054 0.000000 0.000000 0.000000 0.000000 0.000000 0.000000 -2.836505 -1.233917 -0.358197 1.397375 -8.785645 -1.912602 1.970692 -4.596929 3.155026 -7.113393 11.941286 1.168455 0.000000 0.000000 0.000000 0.000000 0.000000 0.000000 -0.102219 -2.953452 22.656735 0.826850 2.998945 -0.714996 21.996329 26.198636 -21.109013 0.000000 0.000000 0.000000 0.039209 -0.823892 22.151594 -0.000000 0.000000 0.000000 -1.580193 2.093156 2.555568 0.000000 0.000000 0.000000
